<svg xmlns="http://www.w3.org/2000/svg" version="1.1" xmlns:xlink="http://www.w3.org/1999/xlink" xmlns:svgjs="http://svgjs.dev/svgjs" width="1500" height="935" viewBox="0 0 1500 935"><g transform="matrix(1,0,0,1,-0.9090909090909918,0.3785425101214628)"><svg viewBox="0 0 396 247" data-background-color="#ffffff" preserveAspectRatio="xMidYMid meet" height="935" width="1500" xmlns="http://www.w3.org/2000/svg" xmlns:xlink="http://www.w3.org/1999/xlink"><g id="tight-bounds" transform="matrix(1,0,0,1,0.2400000000000091,-0.09999999999999432)"><svg viewBox="0 0 395.52 247.2" height="247.2" width="395.52"><g><svg></svg></g><g><svg viewBox="0 0 395.52 247.2" height="247.2" width="395.52"><g transform="matrix(1,0,0,1,118.84306941103624,47.215199999999996)"><svg viewBox="0 0 157.8338611779275 152.7696" height="152.7696" width="157.8338611779275"><g><svg viewBox="0 0 244.43135999999998 236.5885293306003" height="152.7696" width="157.8338611779275"><g transform="matrix(1,0,0,1,0,170.23493387863894)"><svg viewBox="0 0 244.43135999999998 66.35359545196134" height="66.35359545196134" width="244.43135999999998"><g id="textblocktransform"><svg viewBox="0 0 244.43135999999998 66.35359545196134" height="66.35359545196134" width="244.43135999999998" id="textblock"><g><svg viewBox="0 0 244.43135999999998 66.35359545196134" height="66.35359545196134" width="244.43135999999998"><g transform="matrix(1,0,0,1,0,0)"><svg width="244.43135999999998" viewBox="3.85 -34.85 175.89000000000001 47.75" height="66.35359545196134" data-palette-color="#4b91f1"><path d="M21.3-17.95Q23.2-17.65 24.78-16.4 26.35-15.15 27.28-13.3 28.2-11.45 28.2-9.35L28.2-9.35Q28.2-6.7 26.85-4.58 25.5-2.45 22.93-1.23 20.35 0 16.85 0L16.85 0 3.85 0 3.85-34.85 16.35-34.85Q19.9-34.85 22.4-33.68 24.9-32.5 26.15-30.5 27.4-28.5 27.4-26L27.4-26Q27.4-22.9 25.73-20.88 24.05-18.85 21.3-17.95L21.3-17.95ZM8.4-31.1L8.4-19.8 16.05-19.8Q19.25-19.8 21-21.3 22.75-22.8 22.75-25.45L22.75-25.45Q22.75-28.1 21-29.6 19.25-31.1 15.95-31.1L15.95-31.1 8.4-31.1ZM16.45-3.75Q19.85-3.75 21.75-5.35 23.65-6.95 23.65-9.8L23.65-9.8Q23.65-12.7 21.65-14.38 19.65-16.05 16.3-16.05L16.3-16.05 8.4-16.05 8.4-3.75 16.45-3.75ZM59.5-14.75Q59.5-13.45 59.35-12L59.35-12 37.45-12Q37.7-7.95 40.22-5.68 42.75-3.4 46.35-3.4L46.35-3.4Q49.3-3.4 51.27-4.78 53.25-6.15 54.05-8.45L54.05-8.45 58.95-8.45Q57.85-4.5 54.55-2.02 51.25 0.45 46.35 0.45L46.35 0.45Q42.45 0.45 39.37-1.3 36.3-3.05 34.55-6.28 32.8-9.5 32.8-13.75L32.8-13.75Q32.8-18 34.5-21.2 36.2-24.4 39.27-26.13 42.35-27.85 46.35-27.85L46.35-27.85Q50.25-27.85 53.25-26.15 56.25-24.45 57.87-21.48 59.5-18.5 59.5-14.75L59.5-14.75ZM54.8-15.7Q54.8-18.3 53.65-20.18 52.5-22.05 50.52-23.03 48.55-24 46.15-24L46.15-24Q42.7-24 40.27-21.8 37.85-19.6 37.5-15.7L37.5-15.7 54.8-15.7ZM97.5-27.4L102-27.4 93.45 0 88.75 0 82.15-21.75 75.55 0 70.84 0 62.25-27.4 66.9-27.4 73.2-4.4 80-27.4 84.65-27.4 91.3-4.35 97.5-27.4ZM131.49-14.75Q131.49-13.45 131.34-12L131.34-12 109.44-12Q109.69-7.95 112.22-5.68 114.74-3.4 118.34-3.4L118.34-3.4Q121.29-3.4 123.27-4.78 125.24-6.15 126.04-8.45L126.04-8.45 130.94-8.45Q129.84-4.5 126.54-2.02 123.24 0.45 118.34 0.45L118.34 0.45Q114.44 0.45 111.37-1.3 108.29-3.05 106.54-6.28 104.79-9.5 104.79-13.75L104.79-13.75Q104.79-18 106.49-21.2 108.19-24.4 111.27-26.13 114.34-27.85 118.34-27.85L118.34-27.85Q122.24-27.85 125.24-26.15 128.24-24.45 129.87-21.48 131.49-18.5 131.49-14.75L131.49-14.75ZM126.79-15.7Q126.79-18.3 125.64-20.18 124.49-22.05 122.52-23.03 120.54-24 118.14-24L118.14-24Q114.69-24 112.27-21.8 109.84-19.6 109.49-15.7L109.49-15.7 126.79-15.7ZM142.04-22.95Q143.24-25.3 145.47-26.6 147.69-27.9 150.89-27.9L150.89-27.9 150.89-23.2 149.69-23.2Q142.04-23.2 142.04-14.9L142.04-14.9 142.04 0 137.49 0 137.49-27.4 142.04-27.4 142.04-22.95ZM175.04-27.4L179.74-27.4 163.24 12.9 158.54 12.9 163.94-0.3 152.89-27.4 157.94-27.4 166.54-5.2 175.04-27.4Z" opacity="1" transform="matrix(1,0,0,1,0,0)" fill="#4b91f1" class="wordmark-text-0" data-fill-palette-color="primary" id="text-0"></path></svg></g></svg></g></svg></g></svg></g><g transform="matrix(1,0,0,1,52.762704460597746,0)"><svg viewBox="0 0 138.9059510788045 138.9059510788045" height="138.9059510788045" width="138.9059510788045"><g><svg></svg></g><g id="icon-0"><svg viewBox="0 0 138.9059510788045 138.9059510788045" height="138.9059510788045" width="138.9059510788045"><g><path d="M0 69.453c0-38.358 31.095-69.453 69.453-69.453 38.358 0 69.453 31.095 69.453 69.453 0 38.358-31.095 69.453-69.453 69.453-38.358 0-69.453-31.095-69.453-69.453zM69.453 132.922c35.053 0 63.469-28.416 63.469-63.469 0-35.053-28.416-63.469-63.469-63.469-35.053 0-63.469 28.416-63.469 63.469 0 35.053 28.416 63.469 63.469 63.469z" data-fill-palette-color="accent" fill="#4b91f1" stroke="transparent"></path><ellipse rx="68.75844578400822" ry="68.75844578400822" cx="69.45297553940225" cy="69.45297553940225" fill="#4b91f1" stroke="transparent" stroke-width="0" fill-opacity="1" data-fill-palette-color="accent"></ellipse></g><g transform="matrix(1,0,0,1,30.71522359192145,41.92591148890838)"><svg viewBox="0 0 77.47550389496159 55.054128100987725" height="55.054128100987725" width="77.47550389496159"><g><svg xmlns="http://www.w3.org/2000/svg" xmlns:xlink="http://www.w3.org/1999/xlink" version="1.1" x="0" y="0" viewBox="4.203 15.333985542410284 90.356 64.20701445758971" enable-background="new 0 0 100 100" xml:space="preserve" height="55.054128100987725" width="77.47550389496159" class="icon-cg-0" data-fill-palette-color="quaternary" id="cg-0"><g fill="#ffffff" data-fill-palette-color="quaternary"><path d="M94.559 73.592V31.575H63.626c0.149-0.453 0.071-1.218 0.071-1.218V23.03c0-1.246-0.559-1.889-0.559-1.889-0.186-0.187-0.203-0.665-0.203-0.665l-0.521-4.482c0.186-0.188-0.065-0.458-0.065-0.458-0.54-0.415-1.853-0.062-1.853-0.062-0.271 0.374-0.094 0.52-0.094 0.52l-0.499 4.503c-0.125 0.623-0.479 0.893-0.479 0.893-0.497 0.581-0.562 1.681-0.562 1.681v7.348c0 0.593 0.139 0.961 0.243 1.155h-32.22V27.31l2.218-1.871 3.309-2.789h-6.618-6.619l3.31 2.789 2.168 1.828v4.308H4.203v42.017h26.772v3.719h-8.924v2.23h20.451v-2.23h-9.296v-3.719h31.605v3.719h-9.295v2.23h20.45v-2.23h-8.924v-3.719H94.559zM33.206 71.361V49.793h4.834c2.464 0 4.462-1.997 4.462-4.461v-1.859c0-2.465-1.998-4.462-4.462-4.462H26.513c-2.464 0-4.462 1.997-4.462 4.462v1.859c0 2.464 1.998 4.461 4.462 4.461h4.462v21.568H6.434V33.806h85.894v37.555H67.043V49.793h4.462c2.465 0 4.462-1.997 4.462-4.461v-1.859c0-2.465-1.997-4.462-4.462-4.462H59.978c-2.464 0-4.461 1.997-4.461 4.462v1.859c0 2.464 1.997 4.461 4.461 4.461h4.834v21.568H33.206z" fill="#ffffff" data-fill-palette-color="quaternary"></path></g></svg></g></svg></g></svg></g></svg></g><g></g></svg></g></svg></g><g><path d="M162.344 37.1A78.917 78.917 0 0 1 233.176 37.1L229.312 37.1A75.053 75.053 0 0 0 166.208 37.1L162.344 37.1M162.344 210.1A78.917 78.917 0 0 0 233.176 210.1L229.312 210.1A75.053 75.053 0 0 1 166.208 210.1L162.344 210.1" fill="#4b91f1" stroke="transparent" data-fill-palette-color="tertiary"></path></g></svg></g><defs></defs></svg><rect width="395.52" height="247.2" fill="none" stroke="none" visibility="hidden"></rect></g></svg></g></svg>